<svg width="31" height="31" viewBox="0 0 31 31" fill="none" xmlns="http://www.w3.org/2000/svg">
<g clip-path="url(#clip0)">
<path d="M29.1427 4.59893C28.7014 4.15685 27.9853 4.15608 27.544 4.59705L13.9795 18.125L9.08543 12.8099C8.66254 12.3509 7.94756 12.3211 7.48776 12.7439C7.02831 13.1668 6.99889 13.8821 7.42178 14.3415L13.1129 20.5219C13.3214 20.7484 13.6131 20.88 13.9206 20.8864C13.9289 20.8867 13.9369 20.8867 13.9448 20.8867C14.2437 20.8867 14.5312 20.768 14.743 20.557L29.1405 6.19798C29.583 5.75707 29.5837 5.04101 29.1427 4.59893Z" fill="#E6330F"/>
<path d="M28.8709 14.3667C28.2464 14.3667 27.7402 14.8728 27.7402 15.4974C27.7402 22.5219 22.0256 28.2363 15.0008 28.2363C7.97645 28.2363 2.26143 22.5219 2.26143 15.4974C2.26143 8.47324 7.97645 2.75842 15.0008 2.75842C15.6253 2.75842 16.1316 2.25228 16.1316 1.62778C16.1316 1.00321 15.6253 0.49707 15.0008 0.49707C6.72927 0.49707 0 7.22611 0 15.4974C0 23.7683 6.72927 30.4977 15.0008 30.4977C23.272 30.4977 30.0016 23.7683 30.0016 15.4974C30.0016 14.8729 29.4955 14.3667 28.8709 14.3667Z" fill="#E6330F"/>
</g>
<defs>
<clipPath id="clip0">
<rect width="30.0016" height="30.0006" fill="white" transform="translate(0 0.49707)"/>
</clipPath>
</defs>
</svg>
