<svg width="30" height="30" viewBox="0 0 30 30" fill="none" xmlns="http://www.w3.org/2000/svg">
<path d="M15.0015 0C6.71699 0 0.000976562 6.71495 0.000976562 14.9973C0.000976562 23.284 6.71699 30 15.0015 30C23.286 30 29.9999 23.2829 29.9999 14.9973C29.9999 6.71495 23.286 0 15.0015 0ZM15.0015 28.4637C7.56347 28.4637 1.53729 22.4343 1.53729 14.9962C1.53729 7.56142 7.56347 1.53417 15.0015 1.53417C22.4374 1.53417 28.4647 7.56142 28.4647 14.9962C28.4636 22.4343 22.4363 28.4637 15.0015 28.4637Z" fill="#E6330F"/>
<path d="M16.7138 18.4079L17.3704 4.9126H12.6638L13.3183 18.4079H16.7138Z" fill="#E6330F"/>
<path d="M15.0176 19.897C13.4394 19.897 12.3354 21.0009 12.3354 22.607C12.3354 24.1551 13.4072 25.3191 14.9575 25.3191H15.0176C16.6258 25.3191 17.6664 24.1551 17.6664 22.607C17.6385 21.0009 16.5946 19.897 15.0176 19.897Z" fill="#E6330F"/>
</svg>
